# xmcd CD database file
#
# Track frame offsets:
#	150
#	34124
#	67229
#	107117
#	136672
#	164751
#	198027
#
# Disc length: 3021 seconds
#
# Revision: 0
# Processed by: cddbd v1.5.2PL0 Copyright (c) Steve Scherf et al.
# Submitted via: CDex 1.51
#
DISCID=600bcb07
DTITLE=Jazzbox - Jazz Is The Grass I Cut
DYEAR=2007
DGENRE=Jazz
TTITLE0=Jazz Is The Grass I Cut
TTITLE1=How To Build A Chameleon
TTITLE2=Later Than I Thought
TTITLE3=Smiling Feat
TTITLE4=Spyes Underground
TTITLE5=Eia
TTITLE6=Cars On Film
EXTD=YEAR: 2007
EXTT0=
EXTT1=
EXTT2=
EXTT3=
EXTT4=
EXTT5=
EXTT6=
PLAYORDER=
